<?xml version="1.0" encoding="UTF-8" standalone="no"?>
<!-- Created with Inkscape (http://www.inkscape.org/) -->
<svg
   xmlns:dc="http://purl.org/dc/elements/1.1/"
   xmlns:cc="http://creativecommons.org/ns#"
   xmlns:rdf="http://www.w3.org/1999/02/22-rdf-syntax-ns#"
   xmlns:svg="http://www.w3.org/2000/svg"
   xmlns="http://www.w3.org/2000/svg"
   xmlns:xlink="http://www.w3.org/1999/xlink"
   xmlns:sodipodi="http://sodipodi.sourceforge.net/DTD/sodipodi-0.dtd"
   xmlns:inkscape="http://www.inkscape.org/namespaces/inkscape"
   width="160.64755"
   height="116.30719"
   id="svg2"
   sodipodi:version="0.32"
   inkscape:version="0.46"
   sodipodi:docname="icon.svg"
   inkscape:output_extension="org.inkscape.output.svg.inkscape"
   version="1.0">
  <defs
     id="defs4">
    <linearGradient
       inkscape:collect="always"
       id="linearGradient3163">
      <stop
         style="stop-color:#285cd0;stop-opacity:1;"
         offset="0"
         id="stop3165" />
      <stop
         style="stop-color:#285cd0;stop-opacity:0;"
         offset="1"
         id="stop3167" />
    </linearGradient>
    <inkscape:perspective
       sodipodi:type="inkscape:persp3d"
       inkscape:vp_x="0 : 526.18109 : 1"
       inkscape:vp_y="0 : 1000 : 0"
       inkscape:vp_z="744.09448 : 526.18109 : 1"
       inkscape:persp3d-origin="372.04724 : 350.78739 : 1"
       id="perspective10" />
    <linearGradient
       inkscape:collect="always"
       xlink:href="#linearGradient3163"
       id="linearGradient3173"
       x1="338.80078"
       y1="180.3649"
       x2="338.80078"
       y2="230.3649"
       gradientUnits="userSpaceOnUse" />
    <linearGradient
       inkscape:collect="always"
       xlink:href="#linearGradient3163"
       id="linearGradient3177"
       gradientUnits="userSpaceOnUse"
       x1="338.80078"
       y1="180.3649"
       x2="338.80078"
       y2="230.3649" />
  </defs>
  <sodipodi:namedview
     id="base"
     pagecolor="#ffffff"
     bordercolor="#666666"
     borderopacity="1.0"
     gridtolerance="10000"
     guidetolerance="10"
     objecttolerance="10"
     inkscape:pageopacity="0.0"
     inkscape:pageshadow="2"
     inkscape:zoom="0.49497475"
     inkscape:cx="145.96434"
     inkscape:cy="563.26995"
     inkscape:document-units="px"
     inkscape:current-layer="layer1"
     showgrid="true"
     inkscape:window-width="1021"
     inkscape:window-height="781"
     inkscape:window-x="70"
     inkscape:window-y="20">
    <inkscape:grid
       type="xygrid"
       id="grid2383"
       visible="true"
       enabled="true" />
  </sodipodi:namedview>
  <metadata
     id="metadata7">
    <rdf:RDF>
      <cc:Work
         rdf:about="">
        <dc:format>image/svg+xml</dc:format>
        <dc:type
           rdf:resource="http://purl.org/dc/dcmitype/StillImage" />
      </cc:Work>
    </rdf:RDF>
  </metadata>
  <g
     inkscape:label="Layer 1"
     inkscape:groupmode="layer"
     id="layer1"
     transform="translate(-10.711331,-22.936636)">
    <g
       id="g2411"
       transform="matrix(0.9232601,0,0,0.71035,8.4445074,26.167326)">
      <flowRoot
         transform="matrix(1.4333333,0,0,2.2366366,-342.28112,-362.88038)"
         style="font-size:72px;font-style:normal;font-variant:normal;font-weight:bold;font-stretch:normal;text-align:start;line-height:125%;writing-mode:lr-tb;text-anchor:start;fill:#3068d8;fill-opacity:1;stroke:none;stroke-width:1px;stroke-linecap:butt;stroke-linejoin:miter;stroke-opacity:1;font-family:Liberation Mono;-inkscape-font-specification:Liberation Mono Bold"
         id="flowRoot2385"
         xml:space="preserve"><flowRegion
           style="fill:url(#linearGradient3177);fill-opacity:1"
           id="flowRegion2387"><rect
             style="font-size:72px;font-style:normal;font-variant:normal;font-weight:bold;font-stretch:normal;text-align:start;line-height:125%;writing-mode:lr-tb;text-anchor:start;fill:#3068d8;fill-opacity:1;font-family:Liberation Mono;-inkscape-font-specification:Liberation Mono Bold"
             y="149.28581"
             x="236.3757"
             height="113.07637"
             width="193.6243"
             id="rect2389" /></flowRegion><flowPara
           style="fill:#3068d8;fill-opacity:1"
           id="flowPara2391">{Q}</flowPara></flowRoot>      <g
         id="g3933">
        <path
           id="flowRoot3935"
           d="M 31.415746,7.9120313 C 22.390849,7.4689536 20.036843,23.420355 21.427205,34.681776 C 21.93816,48.329777 22.924651,69.67646 11.931372,74.102496 C 7.3013612,75.566598 10.686966,81.675009 14.03658,81.860829 C 25.815684,91.271187 19.948249,116.08327 21.56158,132.11526 C 21.929689,147.51137 34.146189,148.41021 41.493871,146.79319 C 50.718976,145.53031 41.577305,142.01041 36.969913,142.59949 C 25.7989,140.03707 27.062842,118.08224 27.47408,105.27562 C 29.347375,93.993755 24.803708,82.098315 17.037622,81.790934 C 14.722215,71.036425 21.511858,72.864115 25.010538,67.252796 C 32.271876,52.279364 21.940138,27.376115 32.445955,14.621941 C 36.266949,10.488279 41.235455,11.823864 45.614704,11.616461 C 46.672347,3.8614377 34.612968,9.5194797 31.415746,7.9120313 z M 133.13762,11.616461 C 140.55705,9.2725998 150.33963,13.741847 150.9647,27.342812 C 153.15805,40.846147 147.10944,60.563732 155.71262,69.699117 C 161.33591,70.226673 165.26234,81.648863 157.90741,83.328622 C 147.69421,88.472103 152.06547,109.00713 151.27824,121.14176 C 152.2853,133.37876 145.68386,145.0901 137.61679,142.94897 C 125.70293,145.06418 142.86081,148.67983 147.56054,146.6534 C 156.29928,146.60627 158.70912,130.62009 157.32512,119.60407 C 156.74913,106.09119 155.91108,84.922673 166.77616,80.602721 C 171.77035,78.709497 167.45553,72.952753 164.13345,72.425018 C 152.7918,61.867087 159.06111,37.632436 157.10116,21.192061 C 156.0887,5.4084745 143.37807,7.0371709 136.00429,7.8421365 C 133.51662,7.7038452 132.55485,6.906954 133.13762,11.616461 z M 87.98762,16.858578 C 62.745044,18.338001 61.782446,71.431482 69.891787,98.425919 C 72.932905,107.60418 79.019354,113.57497 85.479287,114.64153 C 87.586057,130.22463 94.906535,147.87775 106.71054,144.97592 C 110.93038,147.59406 117.46357,138.43185 110.92095,139.17464 C 101.79099,140.38766 94.77775,128.60139 92.869912,115.48027 C 106.13651,112.77144 113.05947,92.174676 112.93658,73.263757 C 114.34994,51.887326 111.12755,21.580207 94.840745,17.487632 C 92.583302,16.910758 90.275134,16.679468 87.98762,16.858578 z M 89.376162,23.848067 C 102.10617,23.673811 105.64864,47.401685 105.18762,63.268787 C 105.47889,79.532647 104.11249,104.37117 91.302203,107.65204 C 79.450314,110.72205 73.615358,89.749782 73.699079,74.45197 C 73.037051,56.202022 73.311376,24.588483 89.376162,23.848067 z"
           style="font-size:72px;font-style:normal;font-variant:normal;font-weight:bold;font-stretch:normal;text-align:start;line-height:125%;writing-mode:lr-tb;text-anchor:start;opacity:0.09090899;fill:#3068d8;fill-opacity:1;stroke:none;stroke-width:1px;stroke-linecap:butt;stroke-linejoin:miter;stroke-opacity:1;font-family:Liberation Mono;-inkscape-font-specification:Liberation Mono Bold" />
        <path
           id="flowRoot3946"
           d="M 31.326163,6.793713 C 22.018641,6.3740529 19.171253,22.858244 20.710538,34.681776 C 21.065288,47.855252 22.429334,68.540741 11.796997,72.984177 C 7.1860639,72.252082 8.2662812,83.474115 12.558455,82.140409 C 23.891105,88.379931 20.219192,111.35961 20.710538,125.40535 C 18.995569,138.1321 25.924417,150.2731 34.282413,147.9115 C 42.395237,152.46192 53.045749,140.98565 39.567829,141.83065 C 30.185688,142.98609 26.593024,126.21635 28.190746,114.22216 C 28.563714,103.19921 29.94023,86.030389 20.979288,82.210303 C 14.260094,80.380802 18.725529,71.332041 23.44283,70.677646 C 32.768225,60.529131 25.850228,39.631095 28.773038,25.17607 C 30.234078,12.688749 39.759065,11.247729 46.331371,12.734779 C 48.719419,1.4295875 35.346534,8.6983209 31.326163,6.793713 z M 132.42095,12.734779 C 139.66923,10.485729 149.57613,13.922769 150.29283,27.482602 C 152.37189,41.372674 146.32914,61.424636 155.39908,70.747541 C 160.60632,71.29337 164.24532,81.324551 157.19074,82.489883 C 146.62926,88.843586 151.64017,110.12205 150.51679,123.3085 C 151.10535,135.50144 143.60415,144.30379 136.18345,141.83065 C 125.04671,146.6948 142.13692,149.95306 147.42616,147.77171 C 157.4328,147.79236 159.45292,129.51154 158.04179,117.43733 C 157.04965,104.27586 157.41939,83.586864 168.29908,81.231775 C 172.62683,76.831729 167.97054,72.307684 164.44699,71.376595 C 153.82324,61.551184 159.56851,38.587502 157.9522,23.219013 C 158.19753,8.850949 147.79969,4.3411963 140.30429,6.7238182 C 136.71905,7.9068871 130.53854,2.8820593 132.42095,12.734779 z M 87.942828,15.740259 C 73.018088,14.763766 64.631454,38.457576 65.009496,59.284778 C 63.897258,80.64392 67.224067,110.47685 83.284495,115.0609 C 87.491328,120.1021 87.455925,132.87811 92.511578,138.82517 C 98.13873,147.89683 107.10619,146.82978 114.4147,144.76623 C 116.74001,133.39748 108.171,140.32206 104.33658,136.44874 C 98.546313,133.67585 95.627802,124.48667 93.810537,116.17922 C 109.07142,112.62415 114.59145,86.682861 113.83241,65.575319 C 114.70034,44.835748 108.83349,17.931157 93.810537,16.159629 C 91.872369,15.726169 89.899472,15.57694 87.942828,15.740259 z M 89.376162,24.966385 C 101.70542,24.889467 104.88067,47.977551 104.47095,63.268787 C 104.86311,79.387601 103.28487,104.98005 90.13762,106.74341 C 77.895535,107.83053 74.028315,85.200933 74.28137,70.048592 C 73.925058,53.416671 74.882209,25.429414 89.376162,24.966385 z"
           style="font-size:72px;font-style:normal;font-variant:normal;font-weight:bold;font-stretch:normal;text-align:start;line-height:125%;writing-mode:lr-tb;text-anchor:start;opacity:0.09090899;fill:#3068d8;fill-opacity:1;stroke:none;stroke-width:1px;stroke-linecap:butt;stroke-linejoin:miter;stroke-opacity:1;font-family:Liberation Mono;-inkscape-font-specification:Liberation Mono Bold" />
        <path
           id="flowRoot3957"
           d="M 31.23658,5.6753947 C 21.627585,5.379197 18.372112,22.317827 19.993872,34.681776 C 20.230988,47.260799 21.864171,67.547697 11.61783,71.935754 C 6.7832255,70.577489 6.7278846,84.468837 11.707413,82.839357 C 22.68302,87.794313 19.833482,109.97799 19.993872,123.16871 C 18.254507,135.96918 23.690295,150.41231 32.84908,149.02982 C 41.94646,154.75847 55.167226,140.22693 39.881371,140.71233 C 30.733895,142.22781 27.3468,125.72237 28.907413,114.22216 C 29.431712,102.61272 30.426273,84.9528 21.158455,81.16188 C 15.097204,79.127927 19.989787,72.577557 23.71158,71.726069 C 35.502309,59.585919 23.096307,31.658022 32.669913,17.138157 C 36.724641,12.133168 42.320646,14.368239 47.048038,13.853097 C 49.811332,-1.0458772 36.59051,7.9990812 31.23658,5.6753947 z M 131.70429,13.853097 C 138.54366,12.039834 148.78403,13.805725 149.53137,27.412707 C 151.68168,41.793385 145.52175,62.443781 155.13033,71.795964 C 159.49222,72.534703 163.36675,80.236583 156.8772,81.511354 C 146.03702,87.864633 150.74949,109.60373 149.80012,123.09882 C 150.43364,134.79352 143.28922,143.17093 136.18345,140.71233 C 123.65911,144.00721 139.40485,153.4468 146.03762,149.02982 C 155.37159,150.30012 160.67291,134.97493 158.75845,121.9106 C 158.76338,108.94247 156.34253,87.420504 167.13449,82.769463 C 172.03304,84.057117 171.90957,70.145975 166.86574,71.795964 C 155.43177,66.088582 159.32314,42.897993 158.75845,29.160079 C 160.2832,16.866406 154.40727,4.2577474 146.03762,5.6054999 C 140.89922,7.8426509 128.85417,-0.58338545 131.70429,13.853097 z M 87.898037,14.621941 C 73.591421,13.653254 64.394409,35.824742 64.427204,56.139508 C 63.07226,78.43117 65.622805,109.46631 82.07512,115.82975 C 87.066574,119.94572 86.718332,133.40085 91.974078,139.59401 C 97.941718,149.26541 107.47449,147.98086 115.13137,145.67487 C 116.68125,136.84022 114.25987,136.03926 109.80116,136.86811 C 102.33381,137.31864 96.503669,127.73592 94.795953,116.87817 C 110.84179,112.56497 115.4972,84.143719 114.54908,62.220364 C 115.01366,42.007297 108.51533,16.767614 93.855328,15.041311 C 91.888035,14.599709 89.884307,14.459271 87.898037,14.621941 z M 89.376162,26.084704 C 101.95626,26.238182 104.14388,50.406785 103.79908,65.645214 C 104.01477,80.969127 101.99777,105.26278 89.376162,105.62509 C 76.76366,105.21981 74.650052,80.868344 74.953245,65.575319 C 74.860666,50.433222 76.53566,26.298034 89.376162,26.084704 z"
           style="font-size:72px;font-style:normal;font-variant:normal;font-weight:bold;font-stretch:normal;text-align:start;line-height:125%;writing-mode:lr-tb;text-anchor:start;opacity:0.09090899;fill:#3068d8;fill-opacity:1;stroke:none;stroke-width:1px;stroke-linecap:butt;stroke-linejoin:miter;stroke-opacity:1;font-family:Liberation Mono;-inkscape-font-specification:Liberation Mono Bold" />
        <path
           id="flowRoot3968"
           d="M 31.191788,4.5570764 C 21.227126,4.1987449 17.572384,21.672826 19.277205,34.681776 C 19.752828,47.349392 20.96292,68.581671 10.229288,71.3067 C 5.5233686,71.643493 6.5663766,85.94741 12.020955,84.237255 C 22.654038,90.142267 18.520964,112.32357 19.277205,125.40535 C 17.536063,139.27395 25.133575,152.53767 34.237621,150.14814 C 43.052005,156.85501 55.654258,140.66386 42.031371,139.59401 C 34.774261,142.10215 28.421327,132.23787 29.62408,120.93207 C 29.187572,107.58958 32.794871,86.405406 22.143872,80.462931 C 14.55807,76.746536 24.084332,74.180912 26.533455,69.629223 C 34.785871,55.262478 23.932944,29.813289 33.968871,17.068262 C 38.505099,11.353835 49.412909,21.133461 47.764704,8.2615058 C 48.624231,0.4692652 34.727836,6.1502774 31.191788,4.5570764 z M 130.98762,14.971416 C 137.66387,13.329926 148.15492,14.156967 148.85949,27.762181 C 150.82765,42.27471 144.89879,63.489275 154.77199,72.774493 C 160.77527,74.515334 160.23821,80.006143 154.7272,81.930724 C 142.64628,93.632046 154.39845,120.8764 146.03762,135.88958 C 142.16383,142.98176 133.35888,136.2189 130.98762,141.83065 C 128.75042,156.64664 141.8258,148.023 147.65012,150.00835 C 157.53103,149.82839 161.13515,132.61295 159.47512,119.74386 C 158.16775,106.00232 158.66328,82.532603 170.98658,82.909252 C 172.44942,73.823006 170.44826,71.141927 165.52199,69.699117 C 155.61568,61.513922 160.76905,39.547355 159.47512,25.735229 C 160.53189,11.486132 151.51734,1.8905136 143.17095,4.4871816 C 136.75891,6.151597 128.27575,-1.4552264 130.98762,14.971416 z M 87.853245,13.503623 C 73.04039,12.665533 63.758511,35.127918 63.710537,56.069613 C 62.275412,78.829717 65.12981,110.47696 81.851162,116.87817 C 86.528157,121.20606 86.33953,134.50577 91.436578,140.36286 C 97.707211,150.61273 107.76733,149.02944 115.84804,146.6534 C 117.29123,136.83185 115.34191,134.28833 109.84595,135.74979 C 102.86146,136.1701 97.415499,127.57198 95.736578,117.57712 C 112.54992,112.08931 116.3442,81.946358 115.17616,59.075094 C 115.38315,38.222729 107.51282,14.203623 92.421995,13.643413 C 90.90249,13.474323 89.376018,13.351129 87.853245,13.503623 z M 89.376162,27.203022 C 101.54102,27.480678 103.35975,51.057154 103.08241,65.645214 C 103.24058,80.303034 101.55988,104.07618 89.376162,104.50677 C 77.215504,104.06312 75.437325,80.304264 75.669912,65.575319 C 75.607017,51.147604 77.031751,27.376674 89.376162,27.203022 z"
           style="font-size:72px;font-style:normal;font-variant:normal;font-weight:bold;font-stretch:normal;text-align:start;line-height:125%;writing-mode:lr-tb;text-anchor:start;opacity:0.09090899;fill:#3068d8;fill-opacity:1;stroke:none;stroke-width:1px;stroke-linecap:butt;stroke-linejoin:miter;stroke-opacity:1;font-family:Liberation Mono;-inkscape-font-specification:Liberation Mono Bold" />
        <path
           id="flowRoot3979"
           d="M 31.102205,3.4387581 C 23.48325,3.3959937 17.886657,14.256833 18.560538,25.735229 C 17.917903,37.759365 19.99089,50.751026 17.216788,62.150469 C 15.405227,68.080508 11.094061,70.713365 7.0042885,70.747541 C 7.7576772,75.819629 4.7985033,85.812742 10.094913,84.516835 C 16.657,85.80686 19.354376,97.018672 18.560538,106.39394 C 19.404514,119.45471 15.992736,135.76368 22.770955,145.88455 C 29.736912,154.9468 39.550113,149.951 47.809496,151.26646 C 48.887105,147.59442 50.181519,134.59913 44.181371,138.47569 C 39.030473,139.56554 31.784328,138.0393 30.833455,128.34093 C 29.049327,115.44585 32.078362,101.3078 29.131371,88.920213 C 27.441213,83.044412 23.79414,79.656087 19.904288,78.296189 C 19.984641,74.402675 24.043339,75.491805 25.59283,72.425018 C 32.621997,64.545951 29.779525,48.827451 30.340746,37.128097 C 29.660988,28.574572 31.414313,16.622836 38.044913,16.229524 C 41.189173,14.64641 47.741656,18.959674 48.481371,13.853097 C 49.68173,5.130304 47.806042,1.2075118 42.031371,3.3688633 C 38.389615,3.4279328 34.741409,3.2580603 31.102205,3.4387581 z M 130.27095,16.089734 C 135.93986,16.72892 144.27095,13.0915 147.2022,23.149118 C 150.41129,36.760237 146.36159,52.258273 149.62095,65.785003 C 151.33244,71.434882 154.93598,75.095741 158.84804,76.269237 C 158.78591,80.336583 154.13958,79.256713 152.71158,82.769463 C 145.86479,91.411647 149.19654,106.68937 148.41158,118.48575 C 149.10343,127.07155 146.7538,138.4971 140.16991,138.4058 C 137.12806,140.09215 129.85265,134.86276 130.27095,141.83065 C 128.59195,151.32365 132.19064,152.58109 137.43762,151.26646 C 144.88876,151.63023 155.02271,152.81569 158.71366,140.15317 C 162.41802,125.2694 158.15399,108.32478 161.26678,93.393486 C 162.87896,86.881183 167.4412,83.929181 171.70324,84.027571 C 170.96006,78.948258 173.90704,68.889254 168.56783,70.188382 C 161.90865,68.760513 159.42122,57.479544 160.19178,48.17149 C 159.3239,34.992064 162.78884,18.593358 155.93658,8.3314007 C 148.95908,-0.10517018 139.20109,4.6059022 130.98762,3.3688633 C 129.33718,4.9611696 130.73562,12.579802 130.27095,16.089734 z M 87.808453,12.385305 C 76.617159,12.080496 66.648469,25.293113 64.516787,42.090634 C 61.710048,61.844117 61.590981,84.201268 67.965745,102.13035 C 71.226822,110.85717 76.85998,116.76688 83.239703,118.48575 C 85.612673,131.9117 90.897616,146.7829 100.70845,148.95993 C 105.98782,150.20075 111.37877,149.21381 116.5647,147.49213 C 115.59115,143.41437 118.86176,131.93029 114.23554,134.35189 C 107.21108,136.45245 99.331091,131.71005 97.25422,120.38799 C 95.844021,116.29002 101.32955,117.0299 102.72408,114.57164 C 114.15223,104.26345 116.29813,81.258704 115.98241,62.220364 C 115.88302,44.037112 112.1524,22.321563 100.08954,15.248423 C 96.253596,12.787899 91.998001,12.13706 87.808453,12.385305 z M 89.376162,28.32134 C 97.736709,27.877592 101.40766,42.022126 101.91783,52.994238 C 102.55103,68.274402 103.368,86.34202 96.85637,98.705498 C 91.588225,107.44028 81.513956,103.24889 79.11887,92.205273 C 75.365271,76.338014 75.517018,57.899092 78.446995,41.74116 C 80.059825,34.357217 84.032308,28.013534 89.376162,28.32134 z"
           style="font-size:72px;font-style:normal;font-variant:normal;font-weight:bold;font-stretch:normal;text-align:start;line-height:125%;writing-mode:lr-tb;text-anchor:start;opacity:0.09090899;fill:#3068d8;fill-opacity:1;stroke:none;stroke-width:1px;stroke-linecap:butt;stroke-linejoin:miter;stroke-opacity:1;font-family:Liberation Mono;-inkscape-font-specification:Liberation Mono Bold" />
        <path
           id="flowRoot3990"
           d="M 261.61719,230.3649 C 259.99998,230.36488 258.54685,230.11879 257.25781,229.62662 C 255.99217,229.13442 254.90233,228.43129 253.98828,227.51724 C 253.09764,226.62661 252.41795,225.52504 251.94922,224.21255 C 251.48045,222.92348 251.24608,221.47036 251.24609,219.85318 L 251.24609,208.32193 C 251.24608,206.84537 251.05858,205.60319 250.68359,204.59537 C 250.30858,203.56413 249.76952,202.7321 249.06641,202.09927 C 248.36327,201.46647 247.5078,201.00944 246.5,200.72818 C 245.51562,200.44694 244.41405,200.2946 243.19531,200.27115 L 243.19531,193.41568 C 244.43749,193.36883 245.55077,193.20476 246.53516,192.92349 C 247.54296,192.61883 248.38671,192.15008 249.06641,191.51724 C 249.76952,190.88445 250.30858,190.06414 250.68359,189.0563 C 251.05858,188.02508 251.24608,186.77118 251.24609,185.29459 L 251.24609,173.76334 C 251.24608,170.34151 252.16014,167.73995 253.98828,165.95865 C 255.83982,164.15401 258.38279,163.25167 261.61719,163.25162 L 273.11328,163.25162 L 273.11328,169.9313 L 266.50391,169.9313 C 264.37107,169.93135 262.82419,170.54072 261.86328,171.75943 C 260.92576,172.97822 260.45701,174.81806 260.45703,177.27896 L 260.45703,187.86099 C 260.45701,189.05633 260.25779,190.15789 259.85938,191.16568 C 259.48435,192.15008 258.96873,193.01726 258.3125,193.76724 C 257.65623,194.51726 256.88279,195.15007 255.99219,195.66568 C 255.10154,196.15789 254.16404,196.50945 253.17969,196.72037 L 253.17969,196.86099 C 254.18748,197.09538 255.1367,197.47038 256.02734,197.98599 C 256.91795,198.4782 257.69138,199.11101 258.34766,199.88443 C 259.00388,200.63444 259.51951,201.50163 259.89453,202.48599 C 260.26951,203.44694 260.45701,204.52506 260.45703,205.72037 L 260.45703,216.3024 C 260.45701,218.78677 260.92576,220.62661 261.86328,221.82193 C 262.82419,223.04067 264.37107,223.65005 266.50391,223.65005 L 273.11328,223.65005 L 273.11328,230.3649 L 261.61719,230.3649 M 320.22266,191.5524 C 320.22262,198.30241 319.0859,203.6696 316.8125,207.65396 C 314.56246,211.63834 311.2695,214.22818 306.93359,215.42349 C 307.40232,216.71255 307.9531,217.77896 308.58594,218.62271 C 309.21872,219.46646 309.92184,220.13442 310.69531,220.62662 C 311.49216,221.1188 312.35934,221.45864 313.29688,221.64615 C 314.23434,221.85708 315.23043,221.96255 316.28516,221.96255 C 316.96481,221.96255 317.67965,221.91567 318.42969,221.82193 C 319.17965,221.72817 319.90621,221.6227 320.60938,221.50552 L 320.60938,228.60709 C 319.34371,228.88832 318.01949,229.1227 316.63672,229.31021 C 315.25387,229.4977 313.74215,229.59145 312.10156,229.59146 C 309.87497,229.59145 307.91794,229.2516 306.23047,228.57193 C 304.56638,227.89223 303.11326,226.93129 301.87109,225.68912 C 300.65232,224.47036 299.60935,223.00552 298.74219,221.29459 C 297.87498,219.58364 297.12498,217.70865 296.49219,215.66959 C 291.80468,214.68521 288.23046,212.1774 285.76953,208.14615 C 283.30859,204.11491 282.07812,198.58366 282.07812,191.5524 C 282.07812,183.46649 283.71875,177.39619 287,173.34146 C 290.30468,169.28682 295.02733,167.25948 301.16797,167.25943 C 307.30857,167.25948 312.0195,169.28682 315.30078,173.34146 C 318.58199,177.39619 320.22262,183.46649 320.22266,191.5524 M 309.71094,191.5524 C 309.71091,186.09149 308.99606,182.03681 307.56641,179.38834 C 306.13669,176.73994 304.00388,175.41572 301.16797,175.41568 C 298.33201,175.41572 296.18748,176.76337 294.73438,179.45865 C 293.30467,182.13056 292.58983,186.1618 292.58984,191.5524 C 292.58983,196.94304 293.30467,201.03288 294.73438,203.82193 C 296.18748,206.58756 298.33201,207.97037 301.16797,207.97037 C 304.00388,207.97037 306.13669,206.58756 307.56641,203.82193 C 308.99606,201.03288 309.71091,196.94304 309.71094,191.5524 M 329.1875,230.3649 L 329.1875,223.65005 L 335.79688,223.65005 C 337.92967,223.65005 339.46483,223.04067 340.40234,221.82193 C 341.36326,220.62661 341.84373,218.78677 341.84375,216.3024 L 341.84375,205.72037 C 341.84373,204.52506 342.03123,203.44694 342.40625,202.48599 C 342.78123,201.50163 343.29685,200.63444 343.95312,199.88443 C 344.60935,199.11101 345.38279,198.4782 346.27344,197.98599 C 347.16404,197.47038 348.11326,197.09538 349.12109,196.86099 L 349.12109,196.72037 C 348.13669,196.50945 347.19919,196.15789 346.30859,195.66568 C 345.41795,195.15007 344.64451,194.51726 343.98828,193.76724 C 343.33201,193.01726 342.80467,192.15008 342.40625,191.16568 C 342.03123,190.15789 341.84373,189.05633 341.84375,187.86099 L 341.84375,177.27896 C 341.84373,174.81806 341.36326,172.97822 340.40234,171.75943 C 339.46483,170.54072 337.92967,169.93135 335.79688,169.9313 L 329.1875,169.9313 L 329.1875,163.25162 L 340.68359,163.25162 C 343.91795,163.25167 346.4492,164.15401 348.27734,165.95865 C 350.12888,167.73995 351.05466,170.34151 351.05469,173.76334 L 351.05469,185.29459 C 351.05466,186.77118 351.24216,188.02508 351.61719,189.0563 C 351.99216,190.06414 352.5195,190.88445 353.19922,191.51724 C 353.90231,192.15008 354.74606,192.61883 355.73047,192.92349 C 356.73825,193.20476 357.86325,193.36883 359.10547,193.41568 L 359.10547,200.27115 C 357.88668,200.2946 356.7734,200.44694 355.76562,200.72818 C 354.78122,201.00944 353.93747,201.46647 353.23438,202.09927 C 352.53122,202.7321 351.99216,203.56413 351.61719,204.59537 C 351.24216,205.60319 351.05466,206.84537 351.05469,208.32193 L 351.05469,219.85318 C 351.05466,221.47036 350.82028,222.92348 350.35156,224.21255 C 349.88279,225.52504 349.19138,226.62661 348.27734,227.51724 C 347.38669,228.43129 346.29685,229.13442 345.00781,229.62662 C 343.74217,230.11879 342.30076,230.36488 340.68359,230.3649 L 329.1875,230.3649"
           style="font-size:72px;font-style:normal;font-variant:normal;font-weight:bold;font-stretch:normal;text-align:start;line-height:125%;writing-mode:lr-tb;text-anchor:start;opacity:0.09090899;fill:#3068d8;fill-opacity:1;stroke:none;stroke-width:1px;stroke-linecap:butt;stroke-linejoin:miter;stroke-opacity:1;font-family:Liberation Mono;-inkscape-font-specification:Liberation Mono Bold"
           transform="matrix(1.4333333,0,0,2.2366366,-342.28112,-362.88038)" />
        <path
           id="flowRoot3999"
           d="M 30.96783,1.2021215 C 23.051028,1.332853 16.755083,12.144128 17.127205,24.337331 C 16.50855,36.481127 18.462412,49.345657 15.962622,61.032151 C 14.11226,67.166149 9.5387228,68.609093 5.5709552,68.650694 C 6.5744176,73.978228 3.389551,85.562865 7.4969969,86.264207 C 13.400624,85.75743 17.814689,94.212409 17.127205,103.03898 C 17.973431,116.61707 14.957998,131.93002 19.814705,144.13718 C 24.253982,154.60817 33.373837,153.93841 40.598038,153.5031 C 44.589756,152.64926 51.899613,156.97319 49.914704,146.79319 C 51.092632,138.08209 49.22755,134.11946 43.464704,136.23906 C 39.198789,137.0096 32.948037,136.08974 32.266788,127.92156 C 30.455313,114.85173 33.592478,100.22064 30.43033,87.87179 C 29.095653,82.714889 25.49532,79.012025 22.950122,77.247766 C 29.933708,73.557002 32.802869,61.486769 31.77408,50.617811 C 32.512146,40.82235 29.846992,28.398683 34.416788,20.632902 C 38.945089,16.181279 44.833079,19.239858 49.914704,18.326371 C 48.865332,13.114157 52.250493,0.9821036 47.764704,1.1322267 C 42.166592,1.1866217 36.563792,1.0282007 30.96783,1.2021215 z M 128.83762,2.250545 C 129.87059,7.4883453 126.26996,19.956633 131.70429,18.326371 C 136.56984,18.727109 144.37477,15.739119 146.21679,25.385755 C 148.58788,38.819866 144.99943,53.929644 148.32199,66.833427 C 149.69215,71.830028 153.24746,75.631326 155.8022,77.387556 C 148.79088,81.030187 145.89605,93.157253 146.97824,103.94762 C 146.22639,113.62836 148.89996,125.81051 144.33554,133.79273 C 139.85269,138.48128 133.90672,135.28833 128.83762,136.23906 C 129.88596,141.47619 126.50412,153.62633 130.98762,153.5031 C 139.71008,152.23778 150.44532,157.48849 157.4147,146.79319 C 163.88047,136.65626 160.96388,120.49917 161.62512,107.58215 C 160.91226,99.091206 162.61066,87.855104 168.92616,86.753471 C 174.5892,88.296684 173.03136,80.163445 173.13658,73.892811 C 174.69752,66.411038 169.60275,69.324011 166.91053,66.973217 C 159.68664,62.330921 161.99543,47.709021 161.62512,38.106625 C 161.81174,26.485487 162.55184,11.341846 155.13033,4.6968662 C 147.36871,-1.9830726 138.00172,2.4009588 129.55429,1.1322267 L 128.83762,1.1322267 L 128.83762,2.250545 z M 87.763662,10.148668 C 75.896651,9.8787506 65.483915,23.727043 63.083454,41.531475 C 60.270408,62.188693 60.027071,85.675793 67.147857,104.25529 C 70.463085,112.54323 75.974137,118.51776 82.164703,120.44281 C 84.635526,134.92349 91.096291,150.01043 101.55949,151.40625 C 107.05879,152.33242 112.63543,151.26442 117.99804,149.3094 C 117.44068,143.9202 119.06518,134.54655 117.29014,131.38104 C 110.45543,134.0622 101.3636,132.60396 98.871995,120.5826 C 99.71124,117.96451 103.63793,117.2981 105.41158,114.57164 C 117.33661,100.61192 118.27606,74.285028 116.96783,52.714658 C 116.17485,34.543194 109.41972,15.308298 97.214703,11.476671 C 94.222061,10.219055 90.904109,9.9838055 87.763662,10.148668 z M 89.376162,30.557977 C 97.847434,30.436908 100.33549,45.623022 100.67182,56.276234 C 100.94964,70.2292 101.79706,86.959712 95.333453,97.796865 C 90.509212,104.86124 81.720442,100.17774 80.104287,90.108426 C 76.959425,74.67626 76.879144,56.731009 80.104287,41.321791 C 81.59772,35.342903 84.890488,30.312864 89.376162,30.557977 z"
           style="font-size:72px;font-style:normal;font-variant:normal;font-weight:bold;font-stretch:normal;text-align:start;line-height:125%;writing-mode:lr-tb;text-anchor:start;opacity:0.09090899;fill:#3068d8;fill-opacity:1;stroke:none;stroke-width:1px;stroke-linecap:butt;stroke-linejoin:miter;stroke-opacity:1;font-family:Liberation Mono;-inkscape-font-specification:Liberation Mono Bold" />
        <path
           id="flowRoot4010"
           d="M 30.923038,0.083803244 C 20.27039,-0.027872022 14.538032,17.467077 16.410538,32.445139 C 15.689142,43.309132 19.57885,63.718955 9.6469968,66.903322 C 2.3903457,63.370554 2.603683,89.511088 8.5719968,87.59221 C 19.057532,88.64627 16.216565,109.94234 16.410538,120.93207 C 14.513493,136.08039 20.00359,154.37006 30.923038,154.48162 C 36.982311,152.56454 49.294945,159.6884 50.631371,150.14814 C 53.605337,133.97679 46.588683,133.83085 38.313663,134.98095 C 29.666005,133.37847 33.185641,114.34411 32.490746,105.27562 C 33.470215,94.539025 31.360649,81.91594 24.562621,77.317661 C 36.47332,68.514282 31.34901,44.432505 32.759496,28.391235 C 33.706414,14.883024 44.952175,20.412146 50.631371,19.444689 C 53.81499,0.54443855 47.05337,-2.8367968 36.298038,0.01390835 C 34.507332,0.075706619 32.711781,-0.092555552 30.923038,0.083803244 z M 128.12095,2.250545 C 125.53641,18.29168 130.67401,22.06719 140.08033,19.514584 C 149.02381,20.547753 145.63563,40.40676 146.26158,49.359703 C 145.24309,60.079164 147.39341,72.56568 154.14491,77.317661 C 143.0554,85.311065 146.66391,107.83672 146.21679,122.88913 C 147.07036,134.30797 139.03589,137.41014 133.27199,135.12074 C 124.0037,131.63152 126.16547,164.05895 136.72095,154.62141 C 146.08326,156.51564 159.46645,154.37547 161.7147,136.86811 C 164.56348,122.04467 158.59507,103.01196 165.34283,90.318111 C 168.51082,85.40686 175.94575,90.773826 173.85324,80.602721 C 175.66826,69.139131 172.4743,67.118039 166.41783,65.435529 C 158.58439,56.67015 163.9768,38.066232 162.34178,25.595439 C 163.39435,9.1066637 153.08575,-2.8202457 143.17095,0.01390835 C 138.82655,1.5118062 129.97819,-2.9892012 128.12095,2.250545 z M 87.71887,9.0303496 C 72.516163,8.3798015 61.547637,30.290274 61.023037,52.644763 C 59.222928,77.254386 61.648085,110.31968 78.670954,120.09334 C 84.359309,121.61009 83.180779,134.68433 87.45012,140.08328 C 94.539501,155.45988 108.14927,154.41173 118.7147,150.21804 C 117.97453,141.72506 121.81744,125.39182 113.16054,131.13673 C 107.6382,132.53794 101.49544,129.1295 99.588661,120.37292 C 116.99528,111.03968 119.56811,77.412494 117.68449,52.574868 C 116.75847,27.239256 104.94172,6.5458042 87.71887,9.0303496 z M 89.376162,31.676295 C 100.24573,32.692578 100.20335,55.216717 100.17095,67.811955 C 100.38098,80.14222 98.414159,102.68197 87.494912,99.753922 C 77.365287,94.24777 78.793274,72.634792 78.626162,59.144988 C 79.081202,48.721971 80.493609,31.694076 89.376162,31.676295 z"
           style="font-size:72px;font-style:normal;font-variant:normal;font-weight:bold;font-stretch:normal;text-align:start;line-height:125%;writing-mode:lr-tb;text-anchor:start;opacity:0.09090899;fill:#3068d8;fill-opacity:1;stroke:none;stroke-width:1px;stroke-linecap:butt;stroke-linejoin:miter;stroke-opacity:1;font-family:Liberation Mono;-inkscape-font-specification:Liberation Mono Bold" />
        <path
           id="flowRoot4021"
           d="M 30.878246,-1.0345151 C 20.567033,-1.1132447 14.05841,15.219101 15.693872,30.208502 C 14.36606,40.899715 19.322642,60.435573 10.408455,65.435529 C 1.5109813,63.376213 4.4512926,77.290038 4.1376219,87.312631 C 7.7563729,88.281653 15.503038,89.417373 15.469913,98.915183 C 16.945716,116.46987 11.451219,142.77382 24.204288,152.80415 C 32.664509,158.66328 42.392671,154.45877 51.348038,155.73973 C 52.472373,141.14791 52.301347,128.57741 40.598038,134.00242 C 32.537731,136.23845 32.412974,120.35952 33.207413,111.98553 C 33.802132,99.829095 34.010696,83.957609 26.040746,77.317661 C 38.153086,66.356621 30.559229,41.063906 34.327205,24.267436 C 38.072619,15.516976 48.700112,25.145562 51.348038,18.326371 C 53.683224,1.8683932 49.925282,-5.0816419 39.164704,-1.1044099 C 36.403689,-1.0351637 33.63704,-1.228342 30.878246,-1.0345151 z M 127.40429,2.250545 C 125.12173,17.974056 128.89838,24.24252 139.05012,20.563007 C 147.81137,19.702707 145.30639,38.920314 145.54491,47.192962 C 144.16438,58.386433 146.69212,71.845886 152.44283,77.527346 C 140.18204,88.99892 148.90152,114.45015 144.02199,131.06683 C 139.84807,138.42523 130.00736,129.67967 127.40429,136.23906 C 125.08419,152.69681 128.79079,159.75022 139.58762,155.73973 C 149.26126,158.38082 161.69101,151.88943 162.74491,134.56158 C 164.82008,120.76182 159.89081,103.58114 165.4772,91.646114 C 168.89471,86.027258 177.0052,92.275705 174.56991,80.602721 C 176.3728,68.667625 173.53562,65.645169 167.00012,64.59679 C 159.6761,57.681982 164.50301,39.964063 163.05845,29.160079 C 164.74225,13.220174 156.60728,-2.6815966 146.03762,-1.1044099 C 141.05485,1.1025912 128.53734,-5.5463702 127.40429,2.250545 z M 87.71887,7.9120313 C 73.049994,7.2964642 61.630814,27.539412 60.575121,49.429598 C 58.400611,74.726025 60.142555,108.66218 77.148037,120.37292 C 83.735192,121.4045 82.464428,134.93648 86.91262,140.85212 C 94.372303,156.79312 108.47768,155.58708 119.43137,151.05677 C 118.66057,141.47914 122.74413,123.6253 113.11574,130.01841 C 108.32854,131.28882 102.15929,128.56495 100.70845,120.86218 C 118.47405,110.15182 120.41421,75.044343 118.13241,49.359703 C 116.7328,24.568331 104.10018,5.4935115 87.71887,7.9120313 z M 89.376162,32.794614 C 99.794789,33.87104 99.352878,55.778358 99.454286,67.811955 C 99.651857,79.85139 97.757019,102.98832 86.599078,98.216234 C 77.585462,89.99986 79.464275,69.557248 79.566787,55.510454 C 80.038053,46.53246 81.943583,32.606333 89.376162,32.794614 z"
           style="font-size:72px;font-style:normal;font-variant:normal;font-weight:bold;font-stretch:normal;text-align:start;line-height:125%;writing-mode:lr-tb;text-anchor:start;opacity:0.09090899;fill:#3068d8;fill-opacity:1;stroke:none;stroke-width:1px;stroke-linecap:butt;stroke-linejoin:miter;stroke-opacity:1;font-family:Liberation Mono;-inkscape-font-specification:Liberation Mono Bold" />
        <path
           id="flowRoot4032"
           d="M 30.878246,-2.1528334 C 20.182986,-2.2499481 13.300606,14.673451 14.977205,30.208502 C 13.478239,40.631632 18.676997,59.233 10.184497,64.387105 C 0.63196103,62.131815 3.8073963,76.793013 3.4209553,87.312631 C 5.1128906,91.102164 13.611726,88.009477 14.484497,96.958126 C 16.787792,114.91295 10.361513,141.65245 23.084497,153.15362 C 31.941851,160.2568 42.523277,155.43445 52.064704,156.85805 C 53.137181,141.22884 53.19354,127.1852 40.598038,132.8841 C 32.340261,134.86446 33.629831,117.73104 33.92408,109.74889 C 34.532974,98.246272 34.286541,84.252755 27.384496,77.247766 C 38.858415,65.366059 30.874075,40.560014 35.26783,24.197542 C 39.464558,17.370611 49.335853,25.926954 52.064704,19.444689 C 54.253533,2.0967762 50.947206,-6.6762967 39.164704,-2.2227282 C 36.403718,-2.1528557 33.637012,-2.3473984 30.878246,-2.1528334 z M 126.68762,2.250545 C 124.37019,18.774011 128.40795,25.380588 139.05012,21.681325 C 147.94282,21.339992 143.90314,41.208058 144.82824,49.429598 C 144.06134,59.672701 145.51818,71.382321 151.36783,77.317661 C 139.77557,89.277337 147.97997,113.90861 143.4397,130.29799 C 139.05072,137.30247 129.45557,128.5928 126.68762,135.12074 C 124.51281,152.4701 127.77119,161.34125 139.58762,156.85805 C 149.59511,159.63378 162.32666,152.53917 163.46158,134.77126 C 165.48054,121.1019 160.73856,104.16466 165.96991,92.484853 C 169.12655,86.8855 177.39957,93.692144 175.28658,82.839357 C 175.89245,72.317928 176.35084,62.936401 168.43345,64.387105 C 160.30983,59.341589 165.11377,41.458561 163.77512,31.396716 C 165.60063,15.557437 158.89538,-2.1888879 147.87408,-2.1528334 C 141.23159,-0.94010663 130.93196,-5.0680879 126.68762,0.01390835 L 126.68762,2.250545 z M 87.674078,6.793713 C 72.706739,6.2110692 60.920253,26.87824 59.903246,49.289808 C 57.606902,75.034972 59.521965,109.5964 76.879287,121.35144 C 83.38318,123.61984 82.387486,137.95116 87.674078,143.92749 C 95.699254,158.30473 109.39237,156.26556 120.14804,151.96541 C 118.98436,142.40851 124.07748,121.79611 113.83241,128.7603 C 109.67301,130.48345 102.20295,127.68477 102.09699,121.21165 C 119.91574,108.60159 121.23194,72.67957 118.53554,46.214433 C 116.59449,22.197429 103.38859,4.3937349 87.674078,6.793713 z M 89.376162,33.912932 C 98.835932,34.901838 98.484679,54.847739 98.782411,65.715108 C 98.463007,76.731304 98.644166,97.412499 88.973037,97.796865 C 79.817104,95.6042 80.386195,76.547676 79.969912,65.575319 C 80.415292,54.973348 79.85311,34.774618 89.376162,33.912932 z"
           style="font-size:72px;font-style:normal;font-variant:normal;font-weight:bold;font-stretch:normal;text-align:start;line-height:125%;writing-mode:lr-tb;text-anchor:start;opacity:0.09090899;fill:#3068d8;fill-opacity:1;stroke:none;stroke-width:1px;stroke-linecap:butt;stroke-linejoin:miter;stroke-opacity:1;font-family:Liberation Mono;-inkscape-font-specification:Liberation Mono Bold" />
        <path
           id="flowRoot4043"
           d="M 30.833455,-3.2711517 C 19.775948,-3.3626077 12.551733,14.076291 14.260538,30.208502 C 12.689361,40.059254 17.866604,57.84 10.139705,63.268787 C 0.3642717,60.599898 2.695789,74.051098 2.7042886,85.075994 C 1.1051903,95.642626 12.859527,86.574183 13.812622,97.3076 C 15.882298,115.75044 9.8012378,142.50007 22.681372,154.06225 C 31.843338,161.58972 42.87655,156.45749 52.781371,157.97637 C 51.859938,146.57684 56.789458,126.04724 44.898038,131.76578 C 40.45416,133.37408 33.717823,132.02863 34.640746,122.53966 C 34.168979,107.62203 37.308653,87.746695 28.683455,77.247766 C 39.405619,64.53403 31.311672,40.416736 36.163663,24.337331 C 40.918603,19.327109 50.060904,26.76189 52.781371,20.563007 C 52.832612,7.6689984 55.450381,-9.2299542 43.464704,-3.3410465 C 39.255492,-3.2674388 35.04036,-3.47227 30.833455,-3.2711517 z M 125.97095,2.250545 C 123.87045,18.715098 126.89595,27.180812 138.15429,22.799644 C 146.81126,21.026684 143.55269,39.718212 144.11158,47.262857 C 142.83435,58.149283 145.16501,70.880151 149.8897,77.667135 C 139.2711,90.431128 147.43384,114.03131 142.63345,130.08831 C 137.88786,135.34295 128.71002,127.7699 125.97095,134.00242 C 125.93227,146.90014 123.27791,163.8795 135.28762,157.97637 C 145.37659,159.5644 159.4785,158.59046 163.23762,140.57254 C 166.98578,125.69179 161.37622,107.53699 166.23866,93.603171 C 169.75256,87.81867 178.53766,95.008562 176.00324,82.839357 C 176.6302,71.575275 177.28864,61.255143 168.43345,63.198892 C 161.05088,57.71589 165.97908,40.998485 164.49178,31.396716 C 166.392,14.916104 159.21001,-3.3261058 147.91887,-3.2711517 C 140.60562,-3.4553834 133.2863,-3.2809481 125.97095,-3.3410465 C 125.97095,-1.4771902 125.97095,0.38668857 125.97095,2.250545 z M 87.674078,5.6753947 C 72.331249,5.0897985 60.25275,26.197318 59.186579,49.150019 C 56.822267,75.365636 58.934384,110.49112 76.610537,122.39987 C 82.732877,124.49374 81.727952,137.82327 86.464703,143.43823 C 94.658353,159.59451 109.43268,157.57469 120.8647,152.87404 C 119.31322,143.77335 125.13252,120.66768 115.08658,127.50219 C 110.85026,128.4342 105.09541,128.69678 102.5897,122.05039 C 119.99222,109.76249 121.79641,74.951858 119.56574,48.940334 C 118.40751,26.133776 106.39677,5.0732698 91.123037,5.6753947 C 89.972815,5.5850123 88.8243,5.5847886 87.674078,5.6753947 z M 89.913662,35.101145 C 98.30901,37.048898 97.672524,55.541029 98.065745,65.715108 C 97.651397,75.951188 98.169518,94.068078 90.048037,96.678546 C 80.662627,96.498609 80.978176,76.163087 80.686578,65.575319 C 81.08645,55.81817 80.546972,34.708347 89.913662,35.101145 z"
           style="font-size:72px;font-style:normal;font-variant:normal;font-weight:bold;font-stretch:normal;text-align:start;line-height:125%;writing-mode:lr-tb;text-anchor:start;opacity:0.09090899;fill:#3068d8;fill-opacity:1;stroke:none;stroke-width:1px;stroke-linecap:butt;stroke-linejoin:miter;stroke-opacity:1;font-family:Liberation Mono;-inkscape-font-specification:Liberation Mono Bold" />
      </g>
    </g>
  </g>
</svg>
